<?xml version="1.0" encoding="utf-8"?>
<!-- Generator: Adobe Illustrator 19.2.0, SVG Export Plug-In . SVG Version: 6.00 Build 0)  -->
<svg version="1.1" id="Layer_1" xmlns:sketch="http://www.bohemiancoding.com/sketch/ns"
	 xmlns="http://www.w3.org/2000/svg" xmlns:xlink="http://www.w3.org/1999/xlink" x="0px" y="0px" viewBox="0 0 1480 500"
	 style="enable-background:new 0 0 1480 500;" xml:space="preserve">
<style type="text/css">
	.st0{opacity:0.55;fill-opacity:0.5;}
	.st1{opacity:0.55;}
	.st2{fill:#898888;}
	.st3{font-family:'Roboto-Bold';}
	.st4{font-size:71.9672px;}
</style>
<path sketch:type="MSShapeGroup" class="st0" d="M80.2,174c-0.1,0.6-0.2,1.2-0.2,1.8v243.5c0,2.8,1.3,4.8,3.3,5.5L213,301.3
	L80.2,174L80.2,174z M84.9,168.8c2.1-0.4,4.5,0,7,1.4c6,3.3,107.9,59.8,107.9,59.8l55.6,30.8l-37.3,35.6L84.9,168.8L84.9,168.8z
	 M248.9,335.7l-27.6,15.3l-21.4,11.9c0,0-73.1,40.5-100.5,55.7L218,306.1L248.9,335.7L248.9,335.7z M255.3,332.1l0.4-0.2
	c0,0,47.5-26.3,53.8-29.8c6.3-3.5,5.7-8.3,0.4-11c-4.2-2.1-34.7-19.2-48-26.6l-38.8,36.8L255.3,332.1L255.3,332.1z"/>
<path class="st0" d="M1028.7,345.2l-10.1,9.6c-2.3,1.3-4.7,2.8-7,3.9c-7,3.2-14.2,4-20.6,4c-6.8,0-17.4-0.4-28.2-8.3
	c-15-10.7-21.6-29-21.6-45c0-33.1,26.8-49.3,48.6-49.3c7.6,0,15.5,1.9,21.8,6c10.6,7,13.3,16.2,14.9,21.1l-49.8,20.3l-16.3,1.3
	c5.3,27.1,23.5,42.9,43.7,42.9c10.1,0,17.5-3.3,24.4-6.7C1028.3,344.9,1029.7,344.2,1028.7,345.2L1028.7,345.2z M998.3,290.8
	c4-1.5,6.1-2.8,6.1-5.8c0-8.6-9.5-18.5-20.8-18.5c-8.4,0-24.1,6.7-24.1,29.9c0,3.6,0.4,7.5,0.6,11.3L998.3,290.8L998.3,290.8z
	 M924.7,344c0,8.3,1.5,9.6,8.4,10.2c3.6,0.4,7.2,0.6,10.8,1l-7.8,4.7h-37.2c4.9-6.4,5.7-7,5.7-11.3v-4.7l-0.1-126.5H888l15.8-7.7
	h30.2c-6.6,3.8-8.5,6.1-9.4,13.6L924.7,344L924.7,344z M866.9,270.6c4.8,4,15,12.5,15,28.7c0,15.8-8.8,23.2-17.7,30.2
	c-2.7,2.8-5.9,5.8-5.9,10.4c0,4.7,3.2,7.3,5.5,9.2l7.6,5.9c9.3,7.9,17.7,15.1,17.7,29.8c0,20-19.2,40.2-55.5,40.2
	c-30.6,0-45.4-14.7-45.4-30.4c0-7.7,3.8-18.5,16.3-25.9c13.1-8.1,30.8-9.1,40.3-9.8c-3-3.9-6.3-7.9-6.3-14.5c0-3.6,1.1-5.8,2.1-8.3
	c-2.3,0.2-4.6,0.4-6.7,0.4c-22.4,0-35-16.8-35-33.4c0-9.8,4.4-20.6,13.5-28.5c12-10,26.4-11.7,37.8-11.7h43.5l-13.5,7.7L866.9,270.6
	L866.9,270.6z M852,364.8c-1.7-0.2-2.8-0.2-4.9-0.2c-1.9,0-13.4,0.4-22.3,3.5c-4.7,1.8-18.3,6.9-18.3,22.3
	c0,15.4,14.7,26.4,37.4,26.4c20.4,0,31.3-10,31.3-23.4C875.2,382.3,868.2,376.5,852,364.8L852,364.8z M858,323.8
	c4.9-4.9,5.3-11.7,5.3-15.5c0-15.3-9-39-26.5-39c-5.4,0-11.4,2.8-14.7,7c-3.6,4.4-4.6,10.2-4.6,15.7c0,14.2,8.2,37.8,26.3,37.8
	C849,329.7,854.7,327.2,858,323.8L858,323.8z M735.4,362.7c-33.6,0-51.6-26.5-51.6-50.5c0-28.1,22.6-52.1,54.8-52.1
	c31.1,0,50.6,24.7,50.6,50.5C789.1,336,769.9,362.7,735.4,362.7L735.4,362.7z M761.7,345.4c5.1-6.9,6.4-15.5,6.4-23.8
	c0-18.9-8.9-55-35.2-55c-7,0-14,2.8-19.1,7.3c-8.3,7.5-9.8,17-9.8,26.2c0,21.2,10.4,56.2,36.1,56.2
	C748.3,356.3,756.8,352.2,761.7,345.4L761.7,345.4z M622.7,362.7c-33.6,0-51.6-26.5-51.6-50.5c0-28.1,22.6-52.1,54.8-52.1
	c31.1,0,50.5,24.7,50.5,50.5C676.4,336,657.2,362.7,622.7,362.7L622.7,362.7z M649,345.4c5.1-6.9,6.4-15.5,6.4-23.8
	c0-18.9-8.9-55-35.2-55c-7,0-14,2.8-19.1,7.3c-8.3,7.5-9.8,17-9.8,26.2c0,21.2,10.4,56.2,36.1,56.2
	C635.7,356.3,644.1,352.2,649,345.4L649,345.4z M557.2,356.4l-28.5,6.6c-11.5,1.8-21.9,3.4-32.9,3.4c-54.9,0-75.8-40.7-75.8-72.5
	c0-38.9,29.6-74.9,80.4-74.9c10.7,0,21.1,1.6,30.5,4.2c14.9,4.2,21.9,9.4,26.3,12.5l-16.5,15.8l-7,1.6l5-8
	c-6.7-6.6-19.1-18.8-42.6-18.8c-31.4,0-55.1,24-55.1,59.1c0,37.7,27.1,73.1,70.4,73.1c12.8,0,19.3-2.6,25.3-5v-32.3l-30.1,1.6
	l15.9-8.6h42.2l-5.2,5c-1.4,1.2-1.6,1.6-2,3.2c-0.2,1.8-0.4,7.6-0.4,9.7L557.2,356.4L557.2,356.4z M1090.2,346.2v54.1h-10.7V262.6
	h10.7v15.7c7-10.1,19.7-18.2,34.6-18.2c26.6,0,44.5,20.2,44.5,52.2c0,31.8-17.9,52.4-44.5,52.4
	C1110.7,364.7,1098.2,357.5,1090.2,346.2L1090.2,346.2z M1158.2,313.2c0-24.4-12.6-43-34.9-43c-13.9,0-27.1,11-32.9,20.6v44.5
	c5.8,9.6,19,21,32.9,21C1145.6,356.3,1158.2,337.6,1158.2,313.2z M1183.8,224.4h11v138.3h-11V224.4z M1314.3,390.7
	c2.3,1,6.2,1.7,8.7,1.7c6.6,0,11.1-2.7,15.2-12.2l7.8-17.8L1303.8,262h12l36.2,87.1l35.9-87.1h12.1l-51.5,121.6
	c-5.3,12.5-13.8,18.6-25.3,18.6c-3.5,0-8-0.6-10.7-1.4L1314.3,390.7L1314.3,390.7z M1284.1,362.6c-0.7-3.5-1.3-6.5-1.7-9.1
	c-0.3-2.6-0.5-5.2-0.5-7.8c-3.7,5.4-8.9,10-15.6,13.5c-6.7,3.6-13.1,5.3-21.8,5.3c-10.5,0-18.7-2.6-24.5-7.8
	c-5.8-5.2-8.7-12.4-8.7-21.3c0-9,4.2-16.3,12.6-21.8c8.4-5.6,19.3-8.4,32.8-8.4h25.1v-12.5c0-7.2-2.4-12.8-7.3-16.9
	c-4.9-4.1-11.7-6.2-20.6-6.2c-8.1,0-14.7,1.9-19.7,5.6c-5,3.8-7.5,8.4-7.5,14h-11l-0.2-0.5c-0.4-7.6,3.1-14.2,10.4-19.9
	c7.3-5.7,16.9-8.6,28.7-8.6c11.8,0,21.3,2.8,28.4,8.5c7.2,5.6,10.8,13.7,10.8,24.3v49.4c0,3.6,0.2,7,0.6,10.3
	c0.5,3.3,1.2,6.7,2.1,9.9L1284.1,362.6L1284.1,362.6z M1245.8,355.4c9.1,0,15.7-2.1,22.4-6.1c6.7-4.1,11.2-9.3,13.6-15.7v-19.3
	h-25.2c-9.6,0-17.6,2.1-23.9,6.5c-6.3,4.3-9.5,9.6-9.5,15.6c0,5.7,2,10.3,6,13.8C1233.3,353.6,1238.8,355.4,1245.8,355.4
	L1245.8,355.4z"/>
<g class="st1">
	<text transform="matrix(1 0 0 1 421.439 168.6835)" class="st2 st3 st4">AVAILABLE SOON </text>
</g>
</svg>
